<mxfile host="app.diagrams.net" agent="Mozilla/5.0 (Windows NT 10.0; Win64; x64) AppleWebKit/537.36 (KHTML, like Gecko) Chrome/128.0.0.0 Safari/537.36" modified="2024-09-22T14:22:24.503Z" version="24.4.4" etag="uy1vSXfpTASRTqp_yNkt" type="device">
  <diagram id="C5RBs43oDa-KdzZeNtuy" name="Page-1">
    <mxGraphModel dx="2074" dy="1098" grid="1" gridSize="10" guides="1" tooltips="1" connect="1" arrows="1" fold="1" page="1" pageScale="1" pageWidth="827" pageHeight="1169" math="0" shadow="0">
      <root>
        <mxCell id="WIyWlLk6GJQsqaUBKTNV-0" />
        <mxCell id="WIyWlLk6GJQsqaUBKTNV-1" parent="WIyWlLk6GJQsqaUBKTNV-0" />
        <mxCell id="WIyWlLk6GJQsqaUBKTNV-2" value="" style="rounded=0;html=1;jettySize=auto;orthogonalLoop=1;fontSize=11;endArrow=block;endFill=0;endSize=8;strokeWidth=1;shadow=0;labelBackgroundColor=none;edgeStyle=orthogonalEdgeStyle;" parent="WIyWlLk6GJQsqaUBKTNV-1" source="WIyWlLk6GJQsqaUBKTNV-3" target="WIyWlLk6GJQsqaUBKTNV-6" edge="1">
          <mxGeometry relative="1" as="geometry" />
        </mxCell>
        <mxCell id="WIyWlLk6GJQsqaUBKTNV-3" value="Log In / Page" style="rounded=0;whiteSpace=wrap;html=1;fontSize=12;glass=0;strokeWidth=1;shadow=0;" parent="WIyWlLk6GJQsqaUBKTNV-1" vertex="1">
          <mxGeometry x="160" y="80" width="120" height="40" as="geometry" />
        </mxCell>
        <mxCell id="WIyWlLk6GJQsqaUBKTNV-4" value="Yes" style="rounded=0;html=1;jettySize=auto;orthogonalLoop=1;fontSize=11;endArrow=block;endFill=0;endSize=8;strokeWidth=1;shadow=0;labelBackgroundColor=none;edgeStyle=orthogonalEdgeStyle;" parent="WIyWlLk6GJQsqaUBKTNV-1" source="WIyWlLk6GJQsqaUBKTNV-6" edge="1">
          <mxGeometry y="20" relative="1" as="geometry">
            <mxPoint as="offset" />
            <mxPoint x="220" y="290" as="targetPoint" />
            <Array as="points">
              <mxPoint x="220" y="290" />
              <mxPoint x="220" y="290" />
            </Array>
          </mxGeometry>
        </mxCell>
        <mxCell id="WIyWlLk6GJQsqaUBKTNV-5" value="No" style="edgeStyle=orthogonalEdgeStyle;rounded=0;html=1;jettySize=auto;orthogonalLoop=1;fontSize=11;endArrow=block;endFill=0;endSize=8;strokeWidth=1;shadow=0;labelBackgroundColor=none;" parent="WIyWlLk6GJQsqaUBKTNV-1" source="WIyWlLk6GJQsqaUBKTNV-6" target="WIyWlLk6GJQsqaUBKTNV-7" edge="1">
          <mxGeometry y="10" relative="1" as="geometry">
            <mxPoint as="offset" />
          </mxGeometry>
        </mxCell>
        <mxCell id="WIyWlLk6GJQsqaUBKTNV-6" value="account readable?" style="rhombus;whiteSpace=wrap;html=1;shadow=0;fontFamily=Helvetica;fontSize=12;align=center;strokeWidth=1;spacing=6;spacingTop=-4;" parent="WIyWlLk6GJQsqaUBKTNV-1" vertex="1">
          <mxGeometry x="170" y="170" width="100" height="80" as="geometry" />
        </mxCell>
        <mxCell id="WIyWlLk6GJQsqaUBKTNV-7" value="Auth" style="rounded=0;whiteSpace=wrap;html=1;fontSize=12;glass=0;strokeWidth=1;shadow=0;fillColor=#dae8fc;strokeColor=#6c8ebf;" parent="WIyWlLk6GJQsqaUBKTNV-1" vertex="1">
          <mxGeometry x="320" y="190" width="120" height="40" as="geometry" />
        </mxCell>
        <mxCell id="3vHBoHLLcwCQv0nsUdWj-6" value="" style="edgeStyle=orthogonalEdgeStyle;rounded=0;orthogonalLoop=1;jettySize=auto;html=1;" parent="WIyWlLk6GJQsqaUBKTNV-1" source="WIyWlLk6GJQsqaUBKTNV-11" target="3vHBoHLLcwCQv0nsUdWj-5" edge="1">
          <mxGeometry relative="1" as="geometry" />
        </mxCell>
        <mxCell id="WIyWlLk6GJQsqaUBKTNV-11" value="Biddit2" style="rounded=0;whiteSpace=wrap;html=1;fontSize=12;glass=0;strokeWidth=1;shadow=0;" parent="WIyWlLk6GJQsqaUBKTNV-1" vertex="1">
          <mxGeometry x="160" y="290" width="120" height="40" as="geometry" />
        </mxCell>
        <mxCell id="3vHBoHLLcwCQv0nsUdWj-17" value="Yes" style="edgeStyle=orthogonalEdgeStyle;rounded=0;orthogonalLoop=1;jettySize=auto;html=1;" parent="WIyWlLk6GJQsqaUBKTNV-1" source="3vHBoHLLcwCQv0nsUdWj-5" target="3vHBoHLLcwCQv0nsUdWj-13" edge="1">
          <mxGeometry y="30" relative="1" as="geometry">
            <mxPoint as="offset" />
          </mxGeometry>
        </mxCell>
        <mxCell id="3vHBoHLLcwCQv0nsUdWj-5" value="CisIdList&lt;div&gt;Atom?&lt;/div&gt;" style="rhombus;whiteSpace=wrap;html=1;shadow=0;fontFamily=Helvetica;fontSize=12;align=center;strokeWidth=1;spacing=6;spacingTop=-4;" parent="WIyWlLk6GJQsqaUBKTNV-1" vertex="1">
          <mxGeometry x="170" y="370" width="100" height="80" as="geometry" />
        </mxCell>
        <mxCell id="3vHBoHLLcwCQv0nsUdWj-9" value="No" style="edgeStyle=orthogonalEdgeStyle;rounded=0;html=1;jettySize=auto;orthogonalLoop=1;fontSize=11;endArrow=block;endFill=0;endSize=8;strokeWidth=1;shadow=0;labelBackgroundColor=none;" parent="WIyWlLk6GJQsqaUBKTNV-1" target="3vHBoHLLcwCQv0nsUdWj-10" edge="1">
          <mxGeometry y="10" relative="1" as="geometry">
            <mxPoint as="offset" />
            <mxPoint x="270" y="410" as="sourcePoint" />
          </mxGeometry>
        </mxCell>
        <mxCell id="3vHBoHLLcwCQv0nsUdWj-10" value="GET&lt;div&gt;Cis Term and Phase Info&lt;/div&gt;" style="rounded=1;whiteSpace=wrap;html=1;fontSize=12;glass=0;strokeWidth=1;shadow=0;" parent="WIyWlLk6GJQsqaUBKTNV-1" vertex="1">
          <mxGeometry x="320" y="390" width="120" height="40" as="geometry" />
        </mxCell>
        <mxCell id="3vHBoHLLcwCQv0nsUdWj-11" value="Yes" style="rounded=0;html=1;jettySize=auto;orthogonalLoop=1;fontSize=11;endArrow=block;endFill=0;endSize=8;strokeWidth=1;shadow=0;labelBackgroundColor=none;edgeStyle=orthogonalEdgeStyle;entryX=0.5;entryY=0;entryDx=0;entryDy=0;" parent="WIyWlLk6GJQsqaUBKTNV-1" source="3vHBoHLLcwCQv0nsUdWj-13" target="3vHBoHLLcwCQv0nsUdWj-23" edge="1">
          <mxGeometry y="20" relative="1" as="geometry">
            <mxPoint as="offset" />
            <mxPoint x="220" y="610" as="targetPoint" />
            <Array as="points" />
          </mxGeometry>
        </mxCell>
        <mxCell id="3vHBoHLLcwCQv0nsUdWj-12" value="No" style="edgeStyle=orthogonalEdgeStyle;rounded=0;html=1;jettySize=auto;orthogonalLoop=1;fontSize=11;endArrow=block;endFill=0;endSize=8;strokeWidth=1;shadow=0;labelBackgroundColor=none;" parent="WIyWlLk6GJQsqaUBKTNV-1" source="3vHBoHLLcwCQv0nsUdWj-13" target="3vHBoHLLcwCQv0nsUdWj-14" edge="1">
          <mxGeometry y="10" relative="1" as="geometry">
            <mxPoint as="offset" />
          </mxGeometry>
        </mxCell>
        <mxCell id="3vHBoHLLcwCQv0nsUdWj-13" value="enrolledCourses Atom?" style="rhombus;whiteSpace=wrap;html=1;shadow=0;fontFamily=Helvetica;fontSize=12;align=center;strokeWidth=1;spacing=6;spacingTop=-4;" parent="WIyWlLk6GJQsqaUBKTNV-1" vertex="1">
          <mxGeometry x="170" y="490" width="100" height="80" as="geometry" />
        </mxCell>
        <mxCell id="3vHBoHLLcwCQv0nsUdWj-21" value="" style="edgeStyle=orthogonalEdgeStyle;rounded=0;orthogonalLoop=1;jettySize=auto;html=1;" parent="WIyWlLk6GJQsqaUBKTNV-1" source="3vHBoHLLcwCQv0nsUdWj-14" target="3vHBoHLLcwCQv0nsUdWj-20" edge="1">
          <mxGeometry relative="1" as="geometry" />
        </mxCell>
        <mxCell id="3vHBoHLLcwCQv0nsUdWj-14" value="GET&lt;div&gt;MyCourses by Term&lt;/div&gt;" style="rounded=1;whiteSpace=wrap;html=1;fontSize=12;glass=0;strokeWidth=1;shadow=0;fillColor=#f8cecc;strokeColor=#b85450;" parent="WIyWlLk6GJQsqaUBKTNV-1" vertex="1">
          <mxGeometry x="320" y="510" width="120" height="40" as="geometry" />
        </mxCell>
        <mxCell id="3vHBoHLLcwCQv0nsUdWj-19" value="EventAPI" style="text;html=1;align=center;verticalAlign=middle;resizable=0;points=[];autosize=1;strokeColor=#d79b00;fillColor=#ffe6cc;" parent="WIyWlLk6GJQsqaUBKTNV-1" vertex="1">
          <mxGeometry x="344" y="460" width="70" height="30" as="geometry" />
        </mxCell>
        <mxCell id="3vHBoHLLcwCQv0nsUdWj-24" value="" style="edgeStyle=orthogonalEdgeStyle;rounded=0;orthogonalLoop=1;jettySize=auto;html=1;" parent="WIyWlLk6GJQsqaUBKTNV-1" source="3vHBoHLLcwCQv0nsUdWj-20" target="3vHBoHLLcwCQv0nsUdWj-23" edge="1">
          <mxGeometry relative="1" as="geometry" />
        </mxCell>
        <mxCell id="3vHBoHLLcwCQv0nsUdWj-20" value="LatestValid Term Atom" style="rhombus;whiteSpace=wrap;html=1;rounded=1;glass=0;strokeWidth=1;shadow=0;" parent="WIyWlLk6GJQsqaUBKTNV-1" vertex="1">
          <mxGeometry x="340" y="610" width="80" height="80" as="geometry" />
        </mxCell>
        <mxCell id="3vHBoHLLcwCQv0nsUdWj-26" value="SelectedSemester default: latestValidTerm" style="edgeStyle=orthogonalEdgeStyle;rounded=0;orthogonalLoop=1;jettySize=auto;html=1;" parent="WIyWlLk6GJQsqaUBKTNV-1" source="3vHBoHLLcwCQv0nsUdWj-23" edge="1">
          <mxGeometry relative="1" as="geometry">
            <mxPoint x="220" y="741" as="targetPoint" />
          </mxGeometry>
        </mxCell>
        <mxCell id="3vHBoHLLcwCQv0nsUdWj-23" value="SelectSemester&amp;nbsp;" style="rounded=0;whiteSpace=wrap;html=1;fontSize=12;glass=0;strokeWidth=1;shadow=0;fillColor=#dae8fc;strokeColor=#6c8ebf;" parent="WIyWlLk6GJQsqaUBKTNV-1" vertex="1">
          <mxGeometry x="160" y="630" width="120" height="40" as="geometry" />
        </mxCell>
        <mxCell id="nlyTlsR4S4qq6TwGB-oL-7" value="Enrolled courses for current Semester" style="text;html=1;align=center;verticalAlign=middle;resizable=0;points=[];autosize=1;strokeColor=#b85450;fillColor=#f8cecc;" vertex="1" parent="WIyWlLk6GJQsqaUBKTNV-1">
          <mxGeometry x="485" y="515" width="230" height="30" as="geometry" />
        </mxCell>
        <mxCell id="nlyTlsR4S4qq6TwGB-oL-8" value="" style="edgeStyle=orthogonalEdgeStyle;rounded=0;orthogonalLoop=1;jettySize=auto;html=1;" edge="1" parent="WIyWlLk6GJQsqaUBKTNV-1" source="nlyTlsR4S4qq6TwGB-oL-9" target="nlyTlsR4S4qq6TwGB-oL-10">
          <mxGeometry relative="1" as="geometry" />
        </mxCell>
        <mxCell id="nlyTlsR4S4qq6TwGB-oL-25" value="" style="edgeStyle=orthogonalEdgeStyle;rounded=0;orthogonalLoop=1;jettySize=auto;html=1;" edge="1" parent="WIyWlLk6GJQsqaUBKTNV-1" source="nlyTlsR4S4qq6TwGB-oL-9" target="nlyTlsR4S4qq6TwGB-oL-24">
          <mxGeometry relative="1" as="geometry" />
        </mxCell>
        <mxCell id="nlyTlsR4S4qq6TwGB-oL-9" value="EventListContainer" style="rounded=0;whiteSpace=wrap;html=1;fontSize=12;glass=0;strokeWidth=1;shadow=0;fillColor=#dae8fc;strokeColor=#6c8ebf;" vertex="1" parent="WIyWlLk6GJQsqaUBKTNV-1">
          <mxGeometry x="160" y="840" width="120" height="40" as="geometry" />
        </mxCell>
        <mxCell id="nlyTlsR4S4qq6TwGB-oL-37" style="edgeStyle=orthogonalEdgeStyle;rounded=0;orthogonalLoop=1;jettySize=auto;html=1;exitX=1;exitY=0;exitDx=0;exitDy=0;entryX=0.5;entryY=1;entryDx=0;entryDy=0;" edge="1" parent="WIyWlLk6GJQsqaUBKTNV-1" source="nlyTlsR4S4qq6TwGB-oL-10" target="nlyTlsR4S4qq6TwGB-oL-22">
          <mxGeometry relative="1" as="geometry" />
        </mxCell>
        <mxCell id="nlyTlsR4S4qq6TwGB-oL-10" value="GET&lt;div&gt;CourseInfo for (selected) cisID&lt;/div&gt;" style="rounded=1;whiteSpace=wrap;html=1;fontSize=12;glass=0;strokeWidth=1;shadow=0;fillColor=#f8cecc;strokeColor=#b85450;" vertex="1" parent="WIyWlLk6GJQsqaUBKTNV-1">
          <mxGeometry x="330" y="840" width="120" height="40" as="geometry" />
        </mxCell>
        <mxCell id="nlyTlsR4S4qq6TwGB-oL-11" value="EventAPI" style="text;html=1;align=center;verticalAlign=middle;resizable=0;points=[];autosize=1;strokeColor=#d79b00;fillColor=#ffe6cc;" vertex="1" parent="WIyWlLk6GJQsqaUBKTNV-1">
          <mxGeometry x="355" y="890" width="70" height="30" as="geometry" />
        </mxCell>
        <mxCell id="nlyTlsR4S4qq6TwGB-oL-12" value="All available Courses + Info for specific Semester" style="text;html=1;align=center;verticalAlign=middle;resizable=0;points=[];autosize=1;strokeColor=#b85450;fillColor=#f8cecc;" vertex="1" parent="WIyWlLk6GJQsqaUBKTNV-1">
          <mxGeometry x="470" y="845" width="280" height="30" as="geometry" />
        </mxCell>
        <mxCell id="nlyTlsR4S4qq6TwGB-oL-14" value="" style="edgeStyle=orthogonalEdgeStyle;rounded=0;orthogonalLoop=1;jettySize=auto;html=1;" edge="1" parent="WIyWlLk6GJQsqaUBKTNV-1" source="nlyTlsR4S4qq6TwGB-oL-13" target="nlyTlsR4S4qq6TwGB-oL-9">
          <mxGeometry relative="1" as="geometry" />
        </mxCell>
        <mxCell id="nlyTlsR4S4qq6TwGB-oL-34" value="Selected Semester + optional filters" style="edgeLabel;html=1;align=center;verticalAlign=middle;resizable=0;points=[];" vertex="1" connectable="0" parent="nlyTlsR4S4qq6TwGB-oL-14">
          <mxGeometry x="-0.1333" relative="1" as="geometry">
            <mxPoint as="offset" />
          </mxGeometry>
        </mxCell>
        <mxCell id="nlyTlsR4S4qq6TwGB-oL-19" value="" style="edgeStyle=orthogonalEdgeStyle;rounded=0;orthogonalLoop=1;jettySize=auto;html=1;" edge="1" parent="WIyWlLk6GJQsqaUBKTNV-1" source="nlyTlsR4S4qq6TwGB-oL-13" target="nlyTlsR4S4qq6TwGB-oL-17">
          <mxGeometry relative="1" as="geometry" />
        </mxCell>
        <mxCell id="nlyTlsR4S4qq6TwGB-oL-13" value="SelectOptions" style="rounded=0;whiteSpace=wrap;html=1;fontSize=12;glass=0;strokeWidth=1;shadow=0;fillColor=#dae8fc;strokeColor=#6c8ebf;" vertex="1" parent="WIyWlLk6GJQsqaUBKTNV-1">
          <mxGeometry x="160" y="740" width="120" height="40" as="geometry" />
        </mxCell>
        <mxCell id="nlyTlsR4S4qq6TwGB-oL-15" value="GET&lt;div&gt;My Courses for seletced Term&lt;/div&gt;" style="rounded=1;whiteSpace=wrap;html=1;fontSize=12;glass=0;strokeWidth=1;shadow=0;" vertex="1" parent="WIyWlLk6GJQsqaUBKTNV-1">
          <mxGeometry x="330" y="940" width="120" height="40" as="geometry" />
        </mxCell>
        <mxCell id="nlyTlsR4S4qq6TwGB-oL-18" value="" style="edgeStyle=orthogonalEdgeStyle;rounded=0;orthogonalLoop=1;jettySize=auto;html=1;" edge="1" parent="WIyWlLk6GJQsqaUBKTNV-1" source="nlyTlsR4S4qq6TwGB-oL-17">
          <mxGeometry relative="1" as="geometry">
            <mxPoint x="390" y="830" as="targetPoint" />
          </mxGeometry>
        </mxCell>
        <mxCell id="nlyTlsR4S4qq6TwGB-oL-21" value="" style="edgeStyle=orthogonalEdgeStyle;rounded=0;orthogonalLoop=1;jettySize=auto;html=1;" edge="1" parent="WIyWlLk6GJQsqaUBKTNV-1" source="nlyTlsR4S4qq6TwGB-oL-17" target="nlyTlsR4S4qq6TwGB-oL-20">
          <mxGeometry relative="1" as="geometry" />
        </mxCell>
        <mxCell id="nlyTlsR4S4qq6TwGB-oL-17" value="selectOptions&lt;div&gt;Selector&lt;/div&gt;" style="shape=hexagon;perimeter=hexagonPerimeter2;whiteSpace=wrap;html=1;fixedSize=1;" vertex="1" parent="WIyWlLk6GJQsqaUBKTNV-1">
          <mxGeometry x="310" y="735" width="94" height="50" as="geometry" />
        </mxCell>
        <mxCell id="nlyTlsR4S4qq6TwGB-oL-23" value="" style="edgeStyle=orthogonalEdgeStyle;rounded=0;orthogonalLoop=1;jettySize=auto;html=1;" edge="1" parent="WIyWlLk6GJQsqaUBKTNV-1" source="nlyTlsR4S4qq6TwGB-oL-20" target="nlyTlsR4S4qq6TwGB-oL-22">
          <mxGeometry relative="1" as="geometry" />
        </mxCell>
        <mxCell id="nlyTlsR4S4qq6TwGB-oL-20" value="selectedOptions&lt;div&gt;Atom&lt;/div&gt;" style="rhombus;whiteSpace=wrap;html=1;rounded=1;glass=0;strokeWidth=1;shadow=0;" vertex="1" parent="WIyWlLk6GJQsqaUBKTNV-1">
          <mxGeometry x="425" y="720" width="80" height="80" as="geometry" />
        </mxCell>
        <mxCell id="nlyTlsR4S4qq6TwGB-oL-22" value="filteredCourses&lt;div&gt;Selector&lt;/div&gt;" style="shape=hexagon;perimeter=hexagonPerimeter2;whiteSpace=wrap;html=1;fixedSize=1;fillColor=#e1d5e7;strokeColor=#9673a6;" vertex="1" parent="WIyWlLk6GJQsqaUBKTNV-1">
          <mxGeometry x="540" y="735" width="94" height="50" as="geometry" />
        </mxCell>
        <mxCell id="nlyTlsR4S4qq6TwGB-oL-32" value="" style="edgeStyle=orthogonalEdgeStyle;rounded=0;orthogonalLoop=1;jettySize=auto;html=1;" edge="1" parent="WIyWlLk6GJQsqaUBKTNV-1" source="nlyTlsR4S4qq6TwGB-oL-24" target="nlyTlsR4S4qq6TwGB-oL-27">
          <mxGeometry relative="1" as="geometry" />
        </mxCell>
        <mxCell id="nlyTlsR4S4qq6TwGB-oL-33" value="Yes&lt;div&gt;&lt;br&gt;&lt;/div&gt;" style="edgeLabel;html=1;align=center;verticalAlign=middle;resizable=0;points=[];" vertex="1" connectable="0" parent="nlyTlsR4S4qq6TwGB-oL-32">
          <mxGeometry x="-0.545" y="2" relative="1" as="geometry">
            <mxPoint x="-81" y="22" as="offset" />
          </mxGeometry>
        </mxCell>
        <mxCell id="nlyTlsR4S4qq6TwGB-oL-38" style="edgeStyle=orthogonalEdgeStyle;rounded=0;orthogonalLoop=1;jettySize=auto;html=1;exitX=0.5;exitY=1;exitDx=0;exitDy=0;entryX=0;entryY=0.5;entryDx=0;entryDy=0;" edge="1" parent="WIyWlLk6GJQsqaUBKTNV-1" source="nlyTlsR4S4qq6TwGB-oL-24" target="nlyTlsR4S4qq6TwGB-oL-35">
          <mxGeometry relative="1" as="geometry" />
        </mxCell>
        <mxCell id="nlyTlsR4S4qq6TwGB-oL-40" value="No" style="edgeLabel;html=1;align=center;verticalAlign=middle;resizable=0;points=[];" vertex="1" connectable="0" parent="nlyTlsR4S4qq6TwGB-oL-38">
          <mxGeometry x="-0.5333" y="1" relative="1" as="geometry">
            <mxPoint as="offset" />
          </mxGeometry>
        </mxCell>
        <mxCell id="nlyTlsR4S4qq6TwGB-oL-24" value="filteredCourses&lt;div&gt;Selector?&lt;/div&gt;" style="rhombus;whiteSpace=wrap;html=1;shadow=0;fontFamily=Helvetica;fontSize=12;align=center;strokeWidth=1;spacing=6;spacingTop=-4;fillColor=#e1d5e7;strokeColor=#9673a6;" vertex="1" parent="WIyWlLk6GJQsqaUBKTNV-1">
          <mxGeometry x="170" y="970" width="100" height="80" as="geometry" />
        </mxCell>
        <mxCell id="nlyTlsR4S4qq6TwGB-oL-27" value="Dispayed Courses" style="swimlane;fontStyle=0;childLayout=stackLayout;horizontal=1;startSize=30;horizontalStack=0;resizeParent=1;resizeParentMax=0;resizeLast=0;collapsible=1;marginBottom=0;whiteSpace=wrap;html=1;" vertex="1" parent="WIyWlLk6GJQsqaUBKTNV-1">
          <mxGeometry x="634" y="1030" width="95" height="120" as="geometry" />
        </mxCell>
        <mxCell id="nlyTlsR4S4qq6TwGB-oL-28" value="Item 1" style="text;strokeColor=none;fillColor=none;align=left;verticalAlign=middle;spacingLeft=4;spacingRight=4;overflow=hidden;points=[[0,0.5],[1,0.5]];portConstraint=eastwest;rotatable=0;whiteSpace=wrap;html=1;" vertex="1" parent="nlyTlsR4S4qq6TwGB-oL-27">
          <mxGeometry y="30" width="95" height="30" as="geometry" />
        </mxCell>
        <mxCell id="nlyTlsR4S4qq6TwGB-oL-29" value="Item 2" style="text;strokeColor=none;fillColor=none;align=left;verticalAlign=middle;spacingLeft=4;spacingRight=4;overflow=hidden;points=[[0,0.5],[1,0.5]];portConstraint=eastwest;rotatable=0;whiteSpace=wrap;html=1;" vertex="1" parent="nlyTlsR4S4qq6TwGB-oL-27">
          <mxGeometry y="60" width="95" height="30" as="geometry" />
        </mxCell>
        <mxCell id="nlyTlsR4S4qq6TwGB-oL-30" value="Item 3" style="text;strokeColor=none;fillColor=none;align=left;verticalAlign=middle;spacingLeft=4;spacingRight=4;overflow=hidden;points=[[0,0.5],[1,0.5]];portConstraint=eastwest;rotatable=0;whiteSpace=wrap;html=1;" vertex="1" parent="nlyTlsR4S4qq6TwGB-oL-27">
          <mxGeometry y="90" width="95" height="30" as="geometry" />
        </mxCell>
        <mxCell id="nlyTlsR4S4qq6TwGB-oL-35" value="enrolled + available Courses" style="shape=process;whiteSpace=wrap;html=1;backgroundOutline=1;fillColor=#f8cecc;strokeColor=#b85450;" vertex="1" parent="WIyWlLk6GJQsqaUBKTNV-1">
          <mxGeometry x="280" y="1080" width="120" height="60" as="geometry" />
        </mxCell>
      </root>
    </mxGraphModel>
  </diagram>
</mxfile>
